<?xml version="1.0" encoding="utf-8"?>
<!-- Generator: Adobe Illustrator 16.0.3, SVG Export Plug-In . SVG Version: 6.00 Build 0)  -->
<!DOCTYPE svg PUBLIC "-//W3C//DTD SVG 1.1//EN" "http://www.w3.org/Graphics/SVG/1.1/DTD/svg11.dtd">
<svg version="1.1" id="Capa_1" xmlns="http://www.w3.org/2000/svg" xmlns:xlink="http://www.w3.org/1999/xlink" x="0px" y="0px"
	 viewBox="0 0 512 512" enable-background="new 0 0 512 512" xml:space="preserve">
<g>
	<g>
		<path fill="#EBEBEB" d="M258.773,181.506H66.789c-4.142,0-7.499,3.358-7.499,7.499c0,4.142,3.357,7.499,7.499,7.499h191.984
			c4.143,0,7.5-3.358,7.5-7.499C266.273,184.864,262.916,181.506,258.773,181.506z"/>
		<path fill="#EBEBEB" d="M258.773,234.202H66.789c-4.142,0-7.499,3.358-7.499,7.499c0,4.141,3.357,7.499,7.499,7.499h191.984
			c4.143,0,7.5-3.358,7.5-7.499C266.273,237.56,262.916,234.202,258.773,234.202z"/>
		<path fill="#EBEBEB" d="M258.773,286.896H66.789c-4.142,0-7.499,3.358-7.499,7.5c0,4.141,3.357,7.498,7.499,7.498h191.984
			c4.143,0,7.5-3.357,7.5-7.498C266.273,290.255,262.916,286.896,258.773,286.896z"/>
		<path fill="#EBEBEB" d="M266.273,347.093c0-4.142-3.357-7.499-7.5-7.499H66.789c-4.142,0-7.499,3.358-7.499,7.499
			c0,4.142,3.357,7.499,7.499,7.499h191.984C262.916,354.592,266.273,351.234,266.273,347.093z"/>
		<path fill="#EBEBEB" d="M66.789,416.821c-4.142,0-7.499,3.357-7.499,7.499c0,4.141,3.357,7.499,7.499,7.499h96.238
			c4.142,0,7.499-3.358,7.499-7.499c0-4.142-3.357-7.499-7.499-7.499H66.789z"/>
		<path fill="#EBEBEB" d="M345.194,92.853V68.519c0-9.27-7.541-16.812-16.813-16.812H174.415c-9.27,0-16.811,7.542-16.811,16.812
			v24.334c0,9.27,7.541,16.811,16.811,16.811h13.002c4.142,0,7.499-3.358,7.499-7.499c0-4.142-3.357-7.499-7.499-7.499h-13.002
			c-0.999,0-1.812-0.813-1.812-1.812V68.519c0-0.999,0.813-1.813,1.812-1.813h153.967c1,0,1.813,0.813,1.813,1.813v24.334
			c0,0.999-0.813,1.812-1.813,1.812H222.477c-4.142,0-7.499,3.358-7.499,7.499c0,4.142,3.357,7.499,7.499,7.499h105.906
			C337.653,109.665,345.194,102.123,345.194,92.853z"/>
		<path fill="#B9C7D0" d="M401.268,457.296c-4.142,0-7.498,3.358-7.498,7.499v10.099c0,12.189-9.918,22.107-22.108,22.107H39.899
			c-12.189,0-22.107-9.917-22.107-22.107V114.428c0-1.623,0.19-3.215,0.529-4.764h68.283c14.256,0,25.854-11.598,25.854-25.854
			V15.528c1.549-0.339,3.14-0.529,4.763-0.529H371.66c12.189,0,22.107,9.917,22.107,22.107v99.842c0,4.142,3.357,7.499,7.499,7.499
			c4.143,0,7.499-3.358,7.499-7.499V37.105C408.767,16.646,392.121,0,371.661,0H117.222c-9.911,0-19.23,3.86-26.238,10.868
			L13.661,88.191c-7.008,7.008-10.867,16.326-10.867,26.238v360.466C2.794,495.355,19.439,512,39.899,512h331.762
			c20.46,0,37.105-16.646,37.105-37.105v-10.099C408.767,460.654,405.41,457.296,401.268,457.296L401.268,457.296z M97.46,25.604
			V83.81c0,5.986-4.87,10.856-10.856,10.856H28.398L97.46,25.604z"/>
		<path fill="#B9C7D0" d="M503.982,267.999c5.264-7.728,6.626-17.258,3.736-26.15c-2.889-8.892-9.594-15.802-18.394-18.958
			c-5.838-2.094-9.733-7.454-9.919-13.654c-0.283-9.345-4.784-17.857-12.35-23.353c-7.563-5.495-17.051-7.144-26.022-4.526
			c-5.958,1.738-12.255-0.31-16.051-5.215c-5.722-7.395-14.365-11.636-23.716-11.636c-9.349,0-17.993,4.241-23.716,11.636
			c-3.796,4.906-10.097,6.951-16.05,5.215c-8.973-2.62-18.46-0.969-26.025,4.526c-7.563,5.496-12.063,14.007-12.347,23.352
			c-0.187,6.2-4.081,11.559-9.92,13.654c-8.8,3.156-15.505,10.067-18.394,18.958c-2.889,8.892-1.526,18.423,3.738,26.15
			c3.491,5.127,3.491,11.751,0,16.877c-5.265,7.727-6.627,17.258-3.738,26.15c2.889,8.892,9.594,15.802,18.394,18.959
			c5.839,2.095,9.734,7.453,9.92,13.654c0.261,8.596,4.2,16.672,10.811,22.157c4.36,3.62,9.6,5.886,15.083,6.642v68.278
			c0,5.761,3.125,11.086,8.153,13.896c5.023,2.807,11.198,2.682,16.107-0.342l27.505-16.932c0.448-0.277,0.715-0.152,0.962,0
			l27.503,16.932c4.907,3.021,11.08,3.15,16.108,0.341c5.029-2.811,8.153-8.136,8.153-13.896v-68.279
			c5.481-0.756,10.721-3.021,15.081-6.64c6.611-5.485,10.552-13.562,10.813-22.159c0.186-6.199,4.081-11.56,9.919-13.654
			c8.801-3.155,15.506-10.066,18.394-18.959c2.89-8.892,1.527-18.422-3.736-26.149C500.489,279.75,500.489,273.126,503.982,267.999
			L503.982,267.999z M437.115,441.498l-27.504-16.932c-5.113-3.147-11.569-3.152-16.688,0l-27.504,16.931
			c-0.626,0.381-1.398-0.058-1.398-0.782v-69.701c5.155-0.597,10.268,1.502,13.53,5.719c5.724,7.394,14.367,11.635,23.718,11.635
			c9.349,0,17.992-4.241,23.714-11.635c3.264-4.219,8.377-6.315,13.531-5.719v69.701
			C438.515,441.444,437.732,441.879,437.115,441.498L437.115,441.498z M491.587,293.322c2.632,3.861,3.313,8.625,1.868,13.068
			c-1.444,4.444-4.795,7.898-9.194,9.477c-11.682,4.189-19.472,14.913-19.847,27.318c-0.133,4.36-2.05,8.291-5.397,11.069
			c-3.763,3.123-8.858,4.302-13.78,2.865c-11.913-3.476-24.521,0.62-32.116,10.434c-2.859,3.695-7.18,5.815-11.854,5.815
			c-4.672,0-8.992-2.119-11.854-5.815c-5.799-7.495-14.521-11.655-23.623-11.655c-2.818,0-5.674,0.398-8.49,1.221
			c-4.97,1.447-10.051,0.234-13.784-2.865c-3.347-2.777-5.264-6.709-5.395-11.068c-0.376-12.405-8.166-23.129-19.849-27.319
			c-4.398-1.578-7.748-5.031-9.193-9.476c-1.444-4.443-0.764-9.207,1.868-13.07c6.986-10.256,6.986-23.51,0-33.767
			c-2.632-3.862-3.313-8.626-1.868-13.071c1.444-4.444,4.795-7.898,9.193-9.475c11.683-4.191,19.473-14.914,19.849-27.319
			c0.141-4.671,2.389-8.925,6.17-11.671c3.779-2.747,8.52-3.571,13.008-2.263c11.91,3.477,24.521-0.62,32.114-10.434
			c2.86-3.696,7.18-5.816,11.854-5.816s8.993,2.119,11.854,5.815c7.595,9.815,20.199,13.911,32.115,10.435
			c4.485-1.31,9.226-0.485,13.007,2.262c3.781,2.746,6.031,7.001,6.171,11.671c0.376,12.405,8.166,23.129,19.848,27.319
			c4.399,1.577,7.749,5.031,9.194,9.475c1.444,4.444,0.764,9.209-1.868,13.07C484.598,269.811,484.598,283.064,491.587,293.322
			L491.587,293.322z"/>
		<path fill="#EBEBEB" d="M401.268,213.583c-34.657,0-62.854,28.196-62.854,62.854c0,34.657,28.196,62.854,62.854,62.854
			s62.854-28.196,62.854-62.854C464.121,241.779,435.925,213.583,401.268,213.583z M401.268,324.293
			c-26.388,0-47.855-21.468-47.855-47.855c0-26.387,21.468-47.855,47.855-47.855c26.389,0,47.855,21.468,47.855,47.855
			C449.123,302.826,427.655,324.293,401.268,324.293z"/>
	</g>
</g>
</svg>
