<?xml version="1.0" encoding="utf-8"?>
<!-- Generator: Adobe Illustrator 16.0.3, SVG Export Plug-In . SVG Version: 6.00 Build 0)  -->
<!DOCTYPE svg PUBLIC "-//W3C//DTD SVG 1.1//EN" "http://www.w3.org/Graphics/SVG/1.1/DTD/svg11.dtd">
<svg version="1.1" id="Capa_1" xmlns="http://www.w3.org/2000/svg" xmlns:xlink="http://www.w3.org/1999/xlink" x="0px" y="0px"
	 viewBox="0 0 1000 1000" enable-background="new 0 0 1000 1000" xml:space="preserve">
<g>
	<g>
		<path fill="#8F7606" d="M407.407,203.704H185.185c-40.917,0-74.074,33.162-74.074,74.074v102.241
			C43.431,434.317,0,517.588,0,611.111c0,163.637,132.66,296.296,296.296,296.296c48.683,0,94.5-11.963,135.018-32.769
			c-21.231-30.463-37.301-64.664-47.391-101.4c-26.213,14.234-55.771,23.058-87.627,23.058
			c-102.116,0-185.185-83.069-185.185-185.185c0-99.353,78.819-180.051,177.127-184.373l0.653-0.813h139.957l0.308-0.326
			c29.141-1.701,52.326-25.653,52.326-55.229v-92.592C481.481,236.868,448.314,203.704,407.407,203.704z M296.296,833.333
			c10.227,0,18.518,8.292,18.518,18.519c0,10.228-8.291,18.519-18.518,18.519s-18.519-8.291-18.519-18.519
			C277.778,841.625,286.069,833.333,296.296,833.333z M296.296,351.852c-20.463,0-37.037-16.583-37.037-37.037
			s16.574-37.037,37.037-37.037c20.454,0,37.037,16.583,37.037,37.037S316.75,351.852,296.296,351.852z"/>
	</g>
</g>
<g>
	<g>
		<path fill="#8F7606" d="M703.704,101.079H629.63c-0.299,0-0.579,0.086-0.878,0.086c0.346-2.85,0.878-5.637,0.878-8.572
			c0-40.746-33.338-74.074-74.074-74.074h-74.074c-22.236,0-42.037,10.137-55.637,25.78c-13.608-15.644-33.402-25.78-55.646-25.78
			h-74.074c-40.736,0-74.074,33.329-74.074,74.074c0,40.743,33.338,74.076,74.074,74.076h74.074
			c22.245,0,42.037-10.137,55.646-25.782c13.6,15.646,33.4,25.78,55.637,25.78h74.074c0.299,0,0.569-0.081,0.868-0.09
			c-0.336,2.848-0.868,5.644-0.868,8.577c0,40.741,33.328,74.074,74.074,74.074h74.074c40.735,0,74.073-33.333,74.073-74.074
			S744.439,101.079,703.704,101.079z M370.199,129.63h-74.074c-20.417,0-37.037-16.616-37.037-37.037
			c0-20.421,16.621-37.037,37.037-37.037h74.074c20.426,0,37.037,16.616,37.037,37.037
			C407.236,113.016,390.625,129.63,370.199,129.63z M555.556,129.63h-74.074c-20.426,0-37.037-16.616-37.037-37.037
			c0-20.421,16.611-37.037,37.037-37.037h74.074c20.417,0,37.037,16.616,37.037,37.037
			C592.593,113.016,575.973,129.63,555.556,129.63z M703.704,212.192H629.63c-20.426,0-37.037-16.616-37.037-37.037
			c0-20.421,16.611-37.037,37.037-37.037h74.074c20.416,0,37.036,16.616,37.036,37.037
			C740.74,195.576,724.12,212.192,703.704,212.192z"/>
	</g>
</g>
<g>
	<g>
		<path fill="#8F7606" d="M918.231,481.194c-14.259,32.806-46.912,55.843-84.898,55.843h-19.666
			c45.384,33.782,75.222,87.358,75.222,148.148c0,102.115-83.069,185.185-185.185,185.185
			c-102.116,0-185.186-83.069-185.186-185.185c0-99.353,78.819-180.051,177.127-184.373l0.653-0.813h139.956l0.308-0.326
			c29.142-1.701,52.326-25.653,52.326-55.229v-92.593c0-40.912-33.166-74.074-74.074-74.074H592.593
			c-40.917,0-74.074,33.162-74.074,74.074v102.241c-67.681,54.299-111.111,137.569-111.111,231.093
			c0,163.637,132.66,296.296,296.297,296.296C867.34,981.481,1000,848.822,1000,685.186
			C1000,606.049,968.787,534.338,918.231,481.194z M703.704,351.852c20.453,0,37.036,16.583,37.036,37.037
			c0,20.454-16.583,37.037-37.036,37.037c-20.464,0-37.037-16.583-37.037-37.037C666.667,368.435,683.24,351.852,703.704,351.852z
			 M703.704,944.444c-10.228,0-18.519-8.292-18.519-18.519s8.291-18.519,18.519-18.519c10.227,0,18.519,8.292,18.519,18.519
			S713.931,944.444,703.704,944.444z"/>
	</g>
</g>
</svg>
