<?xml version="1.0" encoding="utf-8"?>
<!-- Generator: Adobe Illustrator 16.0.3, SVG Export Plug-In . SVG Version: 6.00 Build 0)  -->
<!DOCTYPE svg PUBLIC "-//W3C//DTD SVG 1.1//EN" "http://www.w3.org/Graphics/SVG/1.1/DTD/svg11.dtd">
<svg version="1.1" id="Layer_1" xmlns="http://www.w3.org/2000/svg" xmlns:xlink="http://www.w3.org/1999/xlink" x="0px" y="0px"
	 viewBox="0 0 980.438 522.655" enable-background="new 0 0 980.438 522.655"
	 xml:space="preserve">
<g>
	<path fill-rule="evenodd" clip-rule="evenodd" fill="#0033FF" d="M735.484,506.602c-163.697,21.397-326.603,21.408-490.265,0.013
		c5.877-37.937,11.57-74.826,17.314-111.707c2.931-18.81,5.456-37.703,9.052-56.388c5.305-27.565,21.895-46.3,48.851-53.327
		c34.132-8.896,68.826-15.648,104.447-23.584c21.487,73.452,42.863,146.529,64.238,219.605c0.782,0.01,1.563,0.021,2.345,0.032
		c21.285-72.813,42.571-145.626,64.19-219.586c18.166,4.053,35.928,8.034,53.697,11.974c15.924,3.53,31.941,6.678,47.768,10.596
		c26.777,6.631,45.88,23.345,50.844,50.193C718.458,391.181,726.348,448.419,735.484,506.602z"/>
	<path fill-rule="evenodd" clip-rule="evenodd" fill="#0033FF" d="M228.654,506.719C151.85,495.733,76.301,484.926,0,474.013
		c9.297-47.784,17.547-94.563,27.771-140.906c5.248-23.791,21.286-40.772,45.084-47.019c35.043-9.193,70.615-16.374,106.82-24.607
		c7.562,25.43,14.942,50.072,22.212,74.745c10.361,35.168,21.041,70.252,30.68,105.618c2.484,9.11,2.662,19.224,1.974,28.736
		C233.688,482.343,230.83,493.96,228.654,506.719z"/>
	<path fill-rule="evenodd" clip-rule="evenodd" fill="#0033FF" d="M800.998,261.703c35.229,7.802,69.551,14.563,103.407,23.163
		c26.564,6.745,42.951,24.919,49.527,51.661c0.648,2.637,1.203,5.302,1.715,7.971c8.18,42.686,16.345,85.376,24.79,129.515
		c-75.779,10.852-151.314,21.668-228.622,32.738c-1.287-21.378-11.432-41.239-4.631-63.584
		c17.003-55.857,33.072-111.997,49.54-168.02C797.959,270.949,799.372,266.802,800.998,261.703z"/>
	<path fill-rule="evenodd" clip-rule="evenodd" fill="#0033FF" d="M326.773,111.657c-1.951,20.595-1.981,41.621-6.478,61.643
		c-3.401,15.144-10.313,30.614-19.493,43.128c-24.545,33.457-41.177,30.792-78.126,27.379c-7.007-0.648-14.108-6.503-20.049-11.332
		c-18.071-14.685-29.571-34.138-34.06-56.651c-7.296-36.599-8.278-73.958-2.825-110.692c6.104-41.122,44.794-68.343,87.118-64.75
		c41.578,3.531,71.974,36.939,72.253,79.465c0.069,10.55,0.01,21.102,0.01,31.653C325.673,111.552,326.224,111.605,326.773,111.657z
		"/>
	<path fill-rule="evenodd" clip-rule="evenodd" fill="#0033FF" d="M571.85,110.971c-1.905,20.599-2.06,41.566-6.301,61.675
		c-3.068,14.553-9.784,29.124-17.987,41.65c-18.865,28.812-45.676,38.477-79.1,29.884c-7.547-1.941-14.803-6.888-20.983-11.935
		c-17.731-14.479-29.033-33.608-33.619-55.774c-7.569-36.588-8.396-73.947-3.109-110.668c6.019-41.793,44.973-69.29,87.553-65.4
		c41.65,3.804,71.67,37.09,71.915,79.784c0.058,10.209,0.008,20.422,0.008,30.633C570.768,110.87,571.309,110.919,571.85,110.971z"
		/>
	<path fill-rule="evenodd" clip-rule="evenodd" fill="#0033FF" d="M816.972,111.438c-1.936,20.596-1.962,41.619-6.433,61.648
		c-3.38,15.152-10.56,30.317-19.36,43.219c-18.746,27.487-45.794,36.472-78.057,27.755c-7.235-1.956-14.17-6.634-20.118-11.449
		c-18.102-14.646-29.62-34.065-34.167-56.581c-7.391-36.593-8.322-73.956-2.918-110.684c6.114-41.562,45.633-69.186,87.951-64.912
		c41.404,4.183,71.15,37.129,71.45,79.195c0.074,10.551,0.01,21.103,0.01,31.652C815.877,111.334,816.425,111.387,816.972,111.438z"
		/>
	<path fill-rule="evenodd" clip-rule="evenodd" fill="#0033FF" d="M490.356,432.578c-10.916-34.122-22.11-68.092-9.941-104.921
		c6.111,0,13.343,0,19.757,0C512.818,364.404,500.707,398.375,490.356,432.578z"/>
	<path fill-rule="evenodd" clip-rule="evenodd" fill="#0033FF" d="M233.193,327.399c7.501,0,14.892,0,23.168,0
		c-4.606,30.683-9.13,60.817-13.915,92.682C229.902,389.355,226.121,359.455,233.193,327.399z"/>
	<path fill-rule="evenodd" clip-rule="evenodd" fill="#0033FF" d="M738.175,421.402c-4.831-32.179-9.404-62.627-14.074-93.718
		c7.087,0,14.547,0,21.729,0C753.963,359.47,751.44,390.063,738.175,421.402z"/>
	<path fill-rule="evenodd" clip-rule="evenodd" fill="#0033FF" d="M268.234,295.176c-15.384,22.474-30.425,22.502-46.183,0
		C237.537,295.176,252.425,295.176,268.234,295.176z"/>
	<path fill-rule="evenodd" clip-rule="evenodd" fill="#0033FF" d="M513.593,295.096c-16.163,22.578-31.248,22.496-46.299,0
		C482.708,295.096,497.592,295.096,513.593,295.096z"/>
	<path fill-rule="evenodd" clip-rule="evenodd" fill="#0033FF" d="M758.354,294.274c-13.597,23.637-31.418,23.736-46.206,0
		c8.425,0,16.034,0,23.645,0C743.105,294.274,750.421,294.274,758.354,294.274z"/>
</g>
</svg>
