<?xml version="1.0" encoding="utf-8"?>
<!-- Generator: Adobe Illustrator 16.0.3, SVG Export Plug-In . SVG Version: 6.00 Build 0)  -->
<!DOCTYPE svg PUBLIC "-//W3C//DTD SVG 1.1//EN" "http://www.w3.org/Graphics/SVG/1.1/DTD/svg11.dtd">
<svg version="1.1" id="Layer_1" xmlns="http://www.w3.org/2000/svg" xmlns:xlink="http://www.w3.org/1999/xlink" x="0px" y="0px"
	  viewBox="0 0 1000 1000" enable-background="new 0 0 1000 1000" xml:space="preserve">
<g>
	<path fill="#8E051D" d="M500,1000c276.126,0,500-223.874,500-500C1000,223.843,776.126,0,500,0C223.843,0,0,223.811,0,500
		C0,776.126,223.846,1000,500,1000z M500,93.752c224.373,0,406.248,181.874,406.248,406.248
		c0,224.373-181.875,406.248-406.248,406.248C275.626,906.248,93.752,724.373,93.752,500C93.752,275.626,275.626,93.752,500,93.752z
		 M499.969,780.72c35.812,0,62.907-18.689,62.907-48.876V454.97c0-30.218-27.093-48.844-62.907-48.844
		c-34.938,0-62.908,19.405-62.908,48.844v276.874C437.064,761.314,465.031,780.72,499.969,780.72z M499.969,343.75
		c34.406,0,62.407-28.002,62.407-62.436c0-34.375-28.001-62.377-62.407-62.377s-62.377,28.002-62.377,62.377
		C437.596,315.752,465.563,343.75,499.969,343.75z"/>
</g>
</svg>
